<svg xmlns="http://www.w3.org/2000/svg" viewBox="0 0 500 500">
<style type="text/css">
	.st0{fill:#FFFFFF;}
</style>
<g id="layer1" transform="translate(0,-552.36218)">
	<rect x="83" y="574.4" width="342" height="478"/>
	<path id="rect2995" class="st0" d="M50,552.4c-27.7,0-50,22.3-50,50v400c0,27.7,22.3,50,50,50h175.2v-224h-44.3v-79.2h44.3V698
		c0-36.7,17.4-94,94-94l69,0.2V681h-50.1c-8.2,0-19.8,4.1-19.8,21.6v46.5h71l-8.1,79.2h-62.8v224H450c27.7,0,50-22.3,50-50v-400
		c0-27.7-22.3-50-50-50L50,552.4L50,552.4z"/>
</g>
</svg>
